<?xml version="1.0" encoding="UTF-8"?>
<svg id="Layer_1" data-name="Layer 1" xmlns="http://www.w3.org/2000/svg" viewBox="0 0 612 792">
  <defs>
    <style>
      .cls-1 {
        fill: #fff;
      }

      .cls-2 {
        fill: none;
      }
    </style>
  </defs>
  <path class="cls-1" d="M441.85,14.11H170.15c-28.36,0-51.35,22.98-51.35,51.35v661.08c0,28.36,22.98,51.35,51.35,51.35h271.71c28.36,0,51.35-22.98,51.35-51.35V65.46c0-28.36-22.98-51.35-51.35-51.35ZM306,764.4c-15.36,0-27.81-12.45-27.81-27.81s12.45-27.81,27.81-27.81,27.81,12.45,27.81,27.81-12.45,27.81-27.81,27.81ZM476.08,662.36c0,21.28-17.23,38.51-38.51,38.51H174.43c-21.28,0-38.51-17.23-38.51-38.51V71.88c0-21.28,17.23-38.51,38.51-38.51h263.15c21.28,0,38.51,17.23,38.51,38.51v590.48Z"/>
  <circle class="cls-2" cx="306" cy="736.59" r="27.81" transform="translate(-481.19 865.17) rotate(-76.72)"/>
  <rect class="cls-2" x="135.92" y="33.37" width="340.17" height="667.5" rx="38.51" ry="38.51"/>
  <rect class="cls-2" x="135.92" y="33.37" width="340.17" height="667.5" rx="38.51" ry="38.51"/>
  <circle class="cls-2" cx="306" cy="736.59" r="27.81" transform="translate(-481.19 865.17) rotate(-76.72)"/>
</svg>